<?xml version="1.0" encoding="UTF-8"?>
<!DOCTYPE svg PUBLIC "-//W3C//DTD SVG 1.1//EN" "http://www.w3.org/Graphics/SVG/1.1/DTD/svg11.dtd">
<!-- Creator: CorelDRAW 2021 (64-Bit) -->
<svg xmlns="http://www.w3.org/2000/svg" xml:space="preserve" width="58.8098mm" height="78.4133mm" version="1.1" style="shape-rendering:geometricPrecision; text-rendering:geometricPrecision; image-rendering:optimizeQuality; fill-rule:evenodd; clip-rule:evenodd"
viewBox="0 0 3337.34 4449.8"
 xmlns:xlink="http://www.w3.org/1999/xlink"
 xmlns:xodm="http://www.corel.com/coreldraw/odm/2003">
 <defs>
  <style type="text/css">
   <![CDATA[
    .fil0 {fill:white}
   ]]>
  </style>
 </defs>
 <g id="Capa_x0020_1">
  <metadata id="CorelCorpID_0Corel-Layer"/>
  <g id="_2394004209808">
   <path class="fil0" d="M1710.81 4442.6c1296.76,105.88 1945.68,-979.04 1471.65,-1766.83 -452.36,-751.77 -1598.87,-892.14 -2145.97,-1400.57 -69.63,-64.72 -205.63,-208.8 -233.11,-356.06 -62.87,-336.94 123.35,-638.94 408.01,-778.83 223.32,-109.75 364.67,-97.76 454.46,-136.8 -866.37,-56.99 -2081.29,582.43 -1278.27,1793.94 359.83,542.87 937,644.58 1501.13,883.82 266.01,112.8 532.26,254.56 684.77,511.09 172.35,289.89 216.55,639.81 -44.57,878.96 -36.65,33.56 -109.72,88.43 -166.01,124.79 -61.8,39.92 -125.44,71.79 -202.32,103.74 -150.63,62.58 -320.26,88.95 -449.78,142.77z"/>
   <path class="fil0" d="M2745.99 411.42c-616.24,84.72 -493.54,1053.78 120.17,974.32 609.08,-78.87 489.91,-1058.19 -120.17,-974.32z"/>
   <path class="fil0" d="M395.79 2999.56c-637.88,108.43 -446.56,1091.17 160.38,966.02 222.47,-45.88 418.45,-276.14 369.76,-570.19 -39.05,-235.81 -259.23,-441.88 -530.14,-395.83z"/>
  </g>
 </g>
</svg>
